<svg id="visual" viewBox="0 0 900 600" width="900" height="600" xmlns="http://www.w3.org/2000/svg" xmlns:xlink="http://www.w3.org/1999/xlink" version="1.1"><path d="M0 100L16.7 100.2C33.3 100.3 66.7 100.7 100 107.2C133.3 113.7 166.7 126.3 200 124C233.3 121.7 266.7 104.3 300 94.2C333.3 84 366.7 81 400 84.2C433.3 87.3 466.7 96.7 500 100.3C533.3 104 566.7 102 600 106.5C633.3 111 666.7 122 700 122.3C733.3 122.7 766.7 112.3 800 106.3C833.3 100.3 866.7 98.7 883.3 97.8L900 97L900 0L883.3 0C866.7 0 833.3 0 800 0C766.7 0 733.3 0 700 0C666.7 0 633.3 0 600 0C566.7 0 533.3 0 500 0C466.7 0 433.3 0 400 0C366.7 0 333.3 0 300 0C266.7 0 233.3 0 200 0C166.7 0 133.3 0 100 0C66.7 0 33.3 0 16.7 0L0 0Z" fill="#ffffff"></path><path d="M0 79L16.7 73.8C33.3 68.7 66.7 58.3 100 59.8C133.3 61.3 166.7 74.7 200 80C233.3 85.3 266.7 82.7 300 77.2C333.3 71.7 366.7 63.3 400 59.7C433.3 56 466.7 57 500 61.5C533.3 66 566.7 74 600 75.5C633.3 77 666.7 72 700 64.8C733.3 57.7 766.7 48.3 800 42.8C833.3 37.3 866.7 35.7 883.3 34.8L900 34L900 0L883.3 0C866.7 0 833.3 0 800 0C766.7 0 733.3 0 700 0C666.7 0 633.3 0 600 0C566.7 0 533.3 0 500 0C466.7 0 433.3 0 400 0C366.7 0 333.3 0 300 0C266.7 0 233.3 0 200 0C166.7 0 133.3 0 100 0C66.7 0 33.3 0 16.7 0L0 0Z" fill="#1ba488"></path></svg>