<svg id="visual" viewBox="0 0 900 600" width="900" height="600" xmlns="http://www.w3.org/2000/svg" xmlns:xlink="http://www.w3.org/1999/xlink" version="1.1"><path d="M0 196L21.5 206.8C43 217.7 86 239.3 128.8 250.3C171.7 261.3 214.3 261.7 257.2 248.7C300 235.7 343 209.3 385.8 201.8C428.7 194.3 471.3 205.7 514.2 211.5C557 217.3 600 217.7 642.8 222.8C685.7 228 728.3 238 771.2 242C814 246 857 244 878.5 243L900 242L900 0L878.5 0C857 0 814 0 771.2 0C728.3 0 685.7 0 642.8 0C600 0 557 0 514.2 0C471.3 0 428.7 0 385.8 0C343 0 300 0 257.2 0C214.3 0 171.7 0 128.8 0C86 0 43 0 21.5 0L0 0Z" fill="#ffffff"></path><path d="M0 127L21.5 131.2C43 135.3 86 143.7 128.8 137C171.7 130.3 214.3 108.7 257.2 100.2C300 91.7 343 96.3 385.8 101.7C428.7 107 471.3 113 514.2 121.7C557 130.3 600 141.7 642.8 141.5C685.7 141.3 728.3 129.7 771.2 118.8C814 108 857 98 878.5 93L900 88L900 0L878.5 0C857 0 814 0 771.2 0C728.3 0 685.7 0 642.8 0C600 0 557 0 514.2 0C471.3 0 428.7 0 385.8 0C343 0 300 0 257.2 0C214.3 0 171.7 0 128.8 0C86 0 43 0 21.5 0L0 0Z" fill="#1ba488"></path></svg>