<svg id="visual" viewBox="0 0 960 540" width="960" height="540" xmlns="http://www.w3.org/2000/svg" xmlns:xlink="http://www.w3.org/1999/xlink" version="1.1"><rect x="0" y="0" width="960" height="540" fill="#2d2b2c"></rect><path d="M0 66L13.3 66.8C26.7 67.7 53.3 69.3 80 69C106.7 68.7 133.3 66.3 160 65.8C186.7 65.3 213.3 66.7 240 65C266.7 63.3 293.3 58.7 320 56.8C346.7 55 373.3 56 400 55.2C426.7 54.3 453.3 51.7 480 53.5C506.7 55.3 533.3 61.7 560 66.3C586.7 71 613.3 74 640 71.3C666.7 68.7 693.3 60.3 720 58C746.7 55.7 773.3 59.3 800 59.7C826.7 60 853.3 57 880 55.7C906.7 54.3 933.3 54.7 946.7 54.8L960 55L960 0L946.7 0C933.3 0 906.7 0 880 0C853.3 0 826.7 0 800 0C773.3 0 746.7 0 720 0C693.3 0 666.7 0 640 0C613.3 0 586.7 0 560 0C533.3 0 506.7 0 480 0C453.3 0 426.7 0 400 0C373.3 0 346.7 0 320 0C293.3 0 266.7 0 240 0C213.3 0 186.7 0 160 0C133.3 0 106.7 0 80 0C53.3 0 26.7 0 13.3 0L0 0Z" fill="#ffffff"></path><path d="M0 28L13.3 27.7C26.7 27.3 53.3 26.7 80 26C106.7 25.3 133.3 24.7 160 28.2C186.7 31.7 213.3 39.3 240 42.5C266.7 45.7 293.3 44.3 320 40.8C346.7 37.3 373.3 31.7 400 28.3C426.7 25 453.3 24 480 26.7C506.7 29.3 533.3 35.7 560 35.7C586.7 35.7 613.3 29.3 640 28C666.7 26.7 693.3 30.3 720 34.7C746.7 39 773.3 44 800 43.3C826.7 42.7 853.3 36.3 880 32.2C906.7 28 933.3 26 946.7 25L960 24L960 0L946.7 0C933.3 0 906.7 0 880 0C853.3 0 826.7 0 800 0C773.3 0 746.7 0 720 0C693.3 0 666.7 0 640 0C613.3 0 586.7 0 560 0C533.3 0 506.7 0 480 0C453.3 0 426.7 0 400 0C373.3 0 346.7 0 320 0C293.3 0 266.7 0 240 0C213.3 0 186.7 0 160 0C133.3 0 106.7 0 80 0C53.3 0 26.7 0 13.3 0L0 0Z" fill="#1ba488"></path></svg>